<svg width="37" height="42" viewBox="0 0 37 42" fill="none" xmlns="http://www.w3.org/2000/svg">
<path d="M10.3636 0C11.7967 0 12.9545 1.17305 12.9545 2.625V5.25H23.3182V2.625C23.3182 1.17305 24.476 0 25.9091 0C27.3422 0 28.5 1.17305 28.5 2.625V5.25H32.3864C34.532 5.25 36.2727 7.01367 36.2727 9.1875V13.125H0V9.1875C0 7.01367 1.74077 5.25 3.88636 5.25H7.77273V2.625C7.77273 1.17305 8.93054 0 10.3636 0ZM0 15.75H36.2727V38.0625C36.2727 40.2363 34.532 42 32.3864 42H3.88636C1.74077 42 0 40.2363 0 38.0625V15.75ZM6.47727 21C5.76477 21 5.18182 21.5906 5.18182 22.3125V30.1875C5.18182 30.9094 5.76477 31.5 6.47727 31.5H14.25C14.9625 31.5 15.5455 30.9094 15.5455 30.1875V22.3125C15.5455 21.5906 14.9625 21 14.25 21H6.47727Z" fill="#078BFB"/>
</svg>
