<svg width="46" height="36" viewBox="0 0 46 36" fill="none" xmlns="http://www.w3.org/2000/svg">
<path d="M24.6771 5.83434C25.5875 5.28245 26.1944 4.28115 26.1944 3.1537C26.1944 1.41128 24.7649 0 23 0C21.2351 0 19.8056 1.41128 19.8056 3.1537C19.8056 4.28903 20.4125 5.28245 21.3229 5.83434L16.7469 14.8697C16.0201 16.3046 14.1354 16.7146 12.8656 15.7133L5.75 10.0918C6.14931 9.56359 6.38889 8.9092 6.38889 8.19962C6.38889 6.4572 4.95937 5.04592 3.19444 5.04592C1.42951 5.04592 0 6.4572 0 8.19962C0 9.94204 1.42951 11.3533 3.19444 11.3533C3.21042 11.3533 3.23438 11.3533 3.25035 11.3533L6.9 31.1743C7.33924 33.5711 9.45555 35.3214 11.9312 35.3214H34.0688C36.5365 35.3214 38.6528 33.579 39.1 31.1743L42.7497 11.3533C42.7656 11.3533 42.7896 11.3533 42.8056 11.3533C44.5705 11.3533 46 9.94204 46 8.19962C46 6.4572 44.5705 5.04592 42.8056 5.04592C41.0406 5.04592 39.6111 6.4572 39.6111 8.19962C39.6111 8.9092 39.8507 9.56359 40.25 10.0918L33.1344 15.7133C31.8646 16.7146 29.9799 16.3046 29.2531 14.8697L24.6771 5.83434Z" fill="url(#paint0_linear_1_225)"/>
<defs>
<linearGradient id="paint0_linear_1_225" x1="23" y1="0" x2="23" y2="35.3214" gradientUnits="userSpaceOnUse">
<stop offset="0.289207" stop-color="#6FECD0"/>
<stop offset="1" stop-color="#078BFB"/>
</linearGradient>
</defs>
</svg>
