<svg width="53" height="42" viewBox="0 0 53 42" fill="none" xmlns="http://www.w3.org/2000/svg">
<path d="M11.718 13.125C8.12123 13.125 5.208 10.1883 5.208 6.5625C5.208 2.93672 8.12123 0 11.718 0C15.3148 0 18.228 2.93672 18.228 6.5625C18.228 10.1883 15.3148 13.125 11.718 13.125ZM41.664 13.125C38.0672 13.125 35.154 10.1883 35.154 6.5625C35.154 2.93672 38.0672 0 41.664 0C45.2608 0 48.174 2.93672 48.174 6.5625C48.174 10.1883 45.2608 13.125 41.664 13.125ZM0 24.5027C0 19.6711 3.88972 15.75 8.68271 15.75H12.1574C13.4513 15.75 14.6801 16.0371 15.7868 16.5457C15.681 17.1363 15.6321 17.7516 15.6321 18.375C15.6321 21.5086 16.9992 24.3223 19.1557 26.25C19.1394 26.25 19.1231 26.25 19.0987 26.25H1.73329C0.7812 26.25 0 25.4625 0 24.5027ZM32.9813 26.25C32.965 26.25 32.9487 26.25 32.9243 26.25C35.0889 24.3223 36.4479 21.5086 36.4479 18.375C36.4479 17.7516 36.3909 17.1445 36.2933 16.5457C37.4 16.0289 38.6287 15.75 39.9226 15.75H43.3973C48.1903 15.75 52.08 19.6711 52.08 24.5027C52.08 25.4707 51.2988 26.25 50.3467 26.25H32.9813ZM33.852 18.375C33.852 22.7227 30.3529 26.25 26.04 26.25C21.7271 26.25 18.228 22.7227 18.228 18.375C18.228 14.0273 21.7271 10.5 26.04 10.5C30.3529 10.5 33.852 14.0273 33.852 18.375ZM10.416 39.8098C10.416 33.7723 15.2741 28.875 21.2633 28.875H30.8167C36.8059 28.875 41.664 33.7723 41.664 39.8098C41.664 41.0156 40.6956 42 39.4913 42H12.5887C11.3925 42 10.416 41.0238 10.416 39.8098Z" fill="#078BFB"/>
</svg>
