<svg width="48" height="42" viewBox="0 0 48 42" fill="none" xmlns="http://www.w3.org/2000/svg">
<path d="M6.94574 0C3.11473 0 0 3.13906 0 7V35C0 38.8609 3.11473 42 6.94574 42H40.9147C44.7457 42 47.8605 38.8609 47.8605 35V7C47.8605 3.13906 44.7457 0 40.9147 0H6.94574ZM29.5194 14H39.1783C40.1333 14 40.9147 14.7875 40.9147 15.75C40.9147 16.7125 40.1333 17.5 39.1783 17.5H29.5194C28.5643 17.5 27.7829 16.7125 27.7829 15.75C27.7829 14.7875 28.5643 14 29.5194 14ZM27.7829 26.25C27.7829 25.2875 28.5643 24.5 29.5194 24.5H39.1783C40.1333 24.5 40.9147 25.2875 40.9147 26.25C40.9147 27.2125 40.1333 28 39.1783 28H29.5194C28.5643 28 27.7829 27.2125 27.7829 26.25ZM17.8093 10.5V11.1891C18.5256 11.3203 19.6109 11.5391 20.0884 11.6703C21.2496 11.9766 21.9333 13.1797 21.6295 14.35C21.3256 15.5203 20.1318 16.2094 18.9705 15.9031C18.5581 15.7937 17.0822 15.4984 16.6155 15.4328C15.2915 15.225 14.2062 15.4 13.5116 15.7172C12.8279 16.0344 12.6543 16.3953 12.6217 16.6031C12.5566 16.975 12.6217 17.1172 12.6326 17.15C12.6651 17.2047 12.7411 17.3469 13.0233 17.5328C13.6853 17.9922 14.7271 18.3203 16.2682 18.7797L16.355 18.8016C17.6682 19.2062 19.4264 19.7313 20.7395 20.7047C21.4667 21.2406 22.1504 21.9516 22.5736 22.9469C23.0078 23.9422 23.0946 25.0359 22.8992 26.1625C22.5411 28.2406 21.1736 29.6625 19.4698 30.3953C18.938 30.625 18.3845 30.7891 17.7985 30.8984V31.5C17.7985 32.7141 16.8217 33.6984 15.6171 33.6984C14.4124 33.6984 13.4357 32.7141 13.4357 31.5V30.8C12.4047 30.5594 11.0589 30.1 10.2016 29.8047C10.0171 29.7391 9.85426 29.6844 9.72403 29.6406C8.5845 29.2578 7.97674 28.0219 8.34574 26.8734C8.71473 25.725 9.95194 25.1125 11.0915 25.4844C11.3085 25.5609 11.5364 25.6375 11.786 25.7141C12.8171 26.0641 13.9783 26.4688 14.6295 26.5781C16.0186 26.7969 17.093 26.6547 17.755 26.3703C18.3519 26.1187 18.5581 25.7906 18.6233 25.4078C18.6992 24.9703 18.6341 24.7625 18.6015 24.675C18.5581 24.5766 18.4605 24.4344 18.2 24.2375C17.5597 23.7672 16.5395 23.4172 15.0202 22.9578L14.7814 22.8813C13.5116 22.4984 11.8512 21.9953 10.5922 21.1313C9.87597 20.6391 9.15969 19.9609 8.71473 18.9984C8.25892 18.0141 8.15039 16.9422 8.34574 15.8266C8.69302 13.825 10.1039 12.4469 11.7209 11.7031C12.2636 11.4516 12.8388 11.2656 13.4465 11.1453V10.4891C13.4465 9.275 14.4233 8.29062 15.6279 8.29062C16.8326 8.29062 17.8093 9.275 17.8093 10.4891V10.5Z" fill="#078BFB"/>
</svg>
