<svg width="51" height="51" viewBox="0 0 51 51" fill="none" xmlns="http://www.w3.org/2000/svg">
<path d="M25.71 0.418038C22.3921 0.415402 19.1062 1.06207 16.0398 2.32113C12.9734 3.58019 10.1867 5.42699 7.83868 7.75606C5.49069 10.0851 3.62737 12.8509 2.35521 15.8954C1.08305 18.9399 0.426968 22.2036 0.424316 25.5C0.426968 28.7965 1.08305 32.0601 2.35521 35.1046C3.62737 38.1491 5.49069 40.9149 7.83868 43.2439C10.1867 45.573 12.9734 47.4198 16.0398 48.6789C19.1062 49.9379 22.3921 50.5846 25.71 50.582C29.0279 50.5846 32.3138 49.9379 35.3801 48.6789C38.4465 47.4198 41.2333 45.573 43.5813 43.2439C45.9292 40.9149 47.7926 38.1491 49.0647 35.1046C50.3369 32.0601 50.993 28.7965 50.9956 25.5C50.993 22.2036 50.3369 18.9399 49.0647 15.8954C47.7926 12.8509 45.9292 10.0851 43.5813 7.75606C41.2333 5.42699 38.4465 3.58019 35.3801 2.32113C32.3138 1.06207 29.0279 0.415402 25.71 0.418038ZM41.9923 41.6511C40.3395 43.223 38.5169 44.6086 36.5579 45.783C34.8942 46.8205 31.6333 48.5261 29.5733 47.8673C28.1856 47.4241 27.4889 45.4468 27.1902 44.1769C26.661 41.4849 26.4382 38.7424 26.5262 36.001C26.5262 34.3213 26.5936 32.6475 26.6946 30.9762C27.8423 31.0928 29.0017 30.9468 30.0839 30.5496C31.1662 30.1524 32.1426 29.5145 32.9385 28.6846C33.7363 27.8134 32.4337 26.5158 31.6342 27.3903C31.0208 28.033 30.2664 28.5264 29.4299 28.8324C28.5933 29.1383 27.697 29.2486 26.8106 29.1545C26.989 26.5426 27.2003 23.9332 27.2844 21.3138C27.3475 19.3465 24.2735 19.3524 24.2112 21.3138C24.1473 23.3028 24.0151 25.286 23.8796 27.2675C22.237 27.4514 20.7586 25.939 19.6562 24.7066C18.8652 23.8229 17.5658 25.1246 18.3526 26C19.7832 27.6027 21.6952 29.162 23.7535 29.1252C23.5776 31.7613 23.4311 34.3991 23.4631 37.0528C23.3981 40.0261 23.735 42.9947 24.4646 45.8791C24.7089 46.7531 25.0903 47.5835 25.5947 48.3396C19.5269 48.3271 13.7124 45.9213 9.42925 41.6511C7.28491 39.5366 5.58453 37.0201 4.42672 34.2476C3.26892 31.475 2.67673 28.5017 2.68454 25.5C2.67677 22.4983 3.26903 19.525 4.42683 16.7525C5.58463 13.98 7.28495 11.4635 9.42925 9.3489C11.5642 7.22092 14.1022 5.53424 16.8969 4.38624C19.6916 3.23823 22.6875 2.65165 25.7116 2.66037C28.7357 2.6516 31.7317 3.23818 34.5264 4.38619C37.3211 5.53419 39.8591 7.22089 41.994 9.3489C44.1383 11.4635 45.8387 13.98 46.9965 16.7525C48.1543 19.525 48.7464 22.4983 48.7387 25.5C48.7459 28.502 48.1529 31.4756 46.9942 34.2482C45.8356 37.0207 44.1342 39.537 41.9889 41.6511H41.9923Z" fill="url(#paint0_linear_1_1020)"/>
<path d="M25.9597 9.29785C20.8122 13.4782 25.4918 17.6661 25.4918 17.6661L25.9125 13.9874L26.4258 17.6661C30.7756 12.9933 25.9597 9.29785 25.9597 9.29785Z" fill="url(#paint1_linear_1_1020)"/>
<path d="M18.1068 10.0069C15.4981 14.4974 20.0994 16.2774 20.0994 16.2774L19.3825 13.4599L20.7861 16.0199C22.6744 11.3931 18.1068 10.0069 18.1068 10.0069Z" fill="url(#paint2_linear_1_1020)"/>
<path d="M33.6716 10.0069C33.6716 10.0069 29.1038 11.3931 30.9922 16.0224L32.3958 13.4624L31.6789 16.2799C31.6789 16.2799 36.2828 14.4974 33.6716 10.0069Z" fill="url(#paint3_linear_1_1020)"/>
<path d="M38.5952 23.5503L40.7418 22.9584L38.8165 24.0586C39.2525 24.2767 39.7338 24.3906 40.2219 24.3913C40.7101 24.3919 41.1917 24.2792 41.6283 24.0622C42.0649 23.8453 42.4445 23.53 42.7368 23.1415C43.0291 22.753 43.226 22.3021 43.3119 21.8247C42.8969 21.5844 42.4337 21.4381 41.9553 21.3965C41.4769 21.3548 40.9951 21.4187 40.5444 21.5836C40.0937 21.7485 39.6852 22.0103 39.3483 22.3503C39.0113 22.6903 38.7542 23.1001 38.5952 23.5503Z" fill="url(#paint4_linear_1_1020)"/>
<path d="M12.4975 24.0595L10.5721 22.9592L12.7188 23.5512C12.5598 23.1014 12.3029 22.6921 11.9662 22.3524C11.6296 22.0128 11.2215 21.7512 10.7714 21.5863C10.3212 21.4215 9.83997 21.3575 9.36199 21.3988C8.88401 21.4401 8.42108 21.5858 8.00635 21.8255C8.09241 22.3024 8.28928 22.7528 8.58129 23.1408C8.8733 23.5288 9.25239 23.8438 9.68844 24.0607C10.1245 24.2776 10.6054 24.3904 11.0931 24.3902C11.5807 24.39 12.0617 24.2767 12.4975 24.0595Z" fill="url(#paint5_linear_1_1020)"/>
<path d="M33.2522 30.9537L34.2309 32.8549L32.8112 31.2605C32.6894 31.7122 32.6752 32.186 32.7697 32.6441C32.8643 33.1023 33.0649 33.5322 33.3558 33.8999C33.6467 34.2675 34.0199 34.5628 34.4457 34.7622C34.8715 34.9616 35.3381 35.0597 35.8087 35.0487C35.9569 34.6125 36.0062 34.149 35.9531 33.6916C35.9 33.2342 35.7458 32.7941 35.5016 32.4028C35.2573 32.0115 34.9289 31.6787 34.5401 31.4281C34.1512 31.1776 33.7115 31.0156 33.2522 30.9537Z" fill="url(#paint6_linear_1_1020)"/>
<path d="M16.9179 35.0203C17.3881 35.0413 17.8567 34.9533 18.2866 34.7631C18.7165 34.5729 19.096 34.2858 19.3948 33.9246C19.6936 33.5633 19.9036 33.1379 20.0082 32.682C20.1127 32.2261 20.1089 31.7523 19.9971 31.2981L18.5421 32.8615L19.5628 30.9821C19.1024 31.034 18.6592 31.1865 18.265 31.4285C17.8709 31.6705 17.5354 31.9961 17.2827 32.382C17.03 32.7679 16.8662 33.2045 16.8032 33.6606C16.7401 34.1167 16.7793 34.581 16.9179 35.0203Z" fill="url(#paint7_linear_1_1020)"/>
<path d="M36.1144 19.0314L34.0106 22.6265C41.0961 21.4919 39.419 14.9263 39.419 14.9263C31.97 15.0809 33.186 21.9835 33.186 21.9835L36.1144 19.0314Z" fill="url(#paint8_linear_1_1020)"/>
<path d="M35.8789 29.0491L39.4629 28.866L36.027 29.932C41.1813 33.2971 43.9532 28.1679 43.9532 28.1679C39.1397 23.9725 35.8789 29.0491 35.8789 29.0491Z" fill="url(#paint9_linear_1_1020)"/>
<path d="M7.46094 28.1679C7.46094 28.1679 10.232 33.2971 15.3862 29.932L11.9504 28.866L15.5344 29.0491C15.5344 29.0491 12.2744 23.9725 7.46094 28.1679Z" fill="url(#paint10_linear_1_1020)"/>
<path d="M12.4396 15.0392C12.4396 15.0392 10.7633 21.6048 17.8479 22.7393L15.7442 19.1442L18.676 22.0981C18.676 22.0981 19.8894 15.1947 12.4396 15.0392Z" fill="url(#paint11_linear_1_1020)"/>
<defs>
<linearGradient id="paint0_linear_1_1020" x1="25.5077" y1="49.98" x2="25.9058" y2="-0.0836603" gradientUnits="userSpaceOnUse">
<stop stop-color="#0193FD"/>
<stop offset="0.156" stop-color="#0198F6"/>
<stop offset="0.372" stop-color="#04A8E4"/>
<stop offset="0.621" stop-color="#07C3C7"/>
<stop offset="0.643" stop-color="#08C6C5"/>
<stop offset="0.885" stop-color="#06E5C4"/>
<stop offset="1" stop-color="#06F6C4"/>
</linearGradient>
<linearGradient id="paint1_linear_1_1020" x1="25.8758" y1="17.5656" x2="25.9949" y2="9.21533" gradientUnits="userSpaceOnUse">
<stop stop-color="#0193FD"/>
<stop offset="0.156" stop-color="#0198F6"/>
<stop offset="0.372" stop-color="#04A8E4"/>
<stop offset="0.621" stop-color="#07C3C7"/>
<stop offset="0.643" stop-color="#08C6C5"/>
<stop offset="0.885" stop-color="#06E5C4"/>
<stop offset="1" stop-color="#06F6C4"/>
</linearGradient>
<linearGradient id="paint2_linear_1_1020" x1="19.2591" y1="16.2021" x2="19.339" y2="9.94481" gradientUnits="userSpaceOnUse">
<stop stop-color="#0193FD"/>
<stop offset="0.156" stop-color="#0198F6"/>
<stop offset="0.372" stop-color="#04A8E4"/>
<stop offset="0.621" stop-color="#07C3C7"/>
<stop offset="0.643" stop-color="#08C6C5"/>
<stop offset="0.885" stop-color="#06E5C4"/>
<stop offset="1" stop-color="#06F6C4"/>
</linearGradient>
<linearGradient id="paint3_linear_1_1020" x1="32.4882" y1="16.2046" x2="32.5681" y2="9.94479" gradientUnits="userSpaceOnUse">
<stop stop-color="#0193FD"/>
<stop offset="0.156" stop-color="#0198F6"/>
<stop offset="0.372" stop-color="#04A8E4"/>
<stop offset="0.621" stop-color="#07C3C7"/>
<stop offset="0.643" stop-color="#08C6C5"/>
<stop offset="0.885" stop-color="#06E5C4"/>
<stop offset="1" stop-color="#06F6C4"/>
</linearGradient>
<linearGradient id="paint4_linear_1_1020" x1="40.9347" y1="24.3552" x2="40.95" y2="21.3539" gradientUnits="userSpaceOnUse">
<stop stop-color="#0193FD"/>
<stop offset="0.156" stop-color="#0198F6"/>
<stop offset="0.372" stop-color="#04A8E4"/>
<stop offset="0.621" stop-color="#07C3C7"/>
<stop offset="0.643" stop-color="#08C6C5"/>
<stop offset="0.885" stop-color="#06E5C4"/>
<stop offset="1" stop-color="#06F6C4"/>
</linearGradient>
<linearGradient id="paint5_linear_1_1020" x1="10.3437" y1="24.3541" x2="10.359" y2="21.3564" gradientUnits="userSpaceOnUse">
<stop stop-color="#0193FD"/>
<stop offset="0.156" stop-color="#0198F6"/>
<stop offset="0.372" stop-color="#04A8E4"/>
<stop offset="0.621" stop-color="#07C3C7"/>
<stop offset="0.643" stop-color="#08C6C5"/>
<stop offset="0.885" stop-color="#06E5C4"/>
<stop offset="1" stop-color="#06F6C4"/>
</linearGradient>
<linearGradient id="paint6_linear_1_1020" x1="34.3279" y1="35.0004" x2="34.369" y2="30.9129" gradientUnits="userSpaceOnUse">
<stop stop-color="#0193FD"/>
<stop offset="0.156" stop-color="#0198F6"/>
<stop offset="0.372" stop-color="#04A8E4"/>
<stop offset="0.621" stop-color="#07C3C7"/>
<stop offset="0.643" stop-color="#08C6C5"/>
<stop offset="0.885" stop-color="#06E5C4"/>
<stop offset="1" stop-color="#06F6C4"/>
</linearGradient>
<linearGradient id="paint7_linear_1_1020" x1="18.4156" y1="34.9748" x2="18.4551" y2="30.9418" gradientUnits="userSpaceOnUse">
<stop stop-color="#0193FD"/>
<stop offset="0.156" stop-color="#0198F6"/>
<stop offset="0.372" stop-color="#04A8E4"/>
<stop offset="0.621" stop-color="#07C3C7"/>
<stop offset="0.643" stop-color="#08C6C5"/>
<stop offset="0.885" stop-color="#06E5C4"/>
<stop offset="1" stop-color="#06F6C4"/>
</linearGradient>
<linearGradient id="paint8_linear_1_1020" x1="36.3263" y1="22.534" x2="36.3995" y2="14.8495" gradientUnits="userSpaceOnUse">
<stop stop-color="#0193FD"/>
<stop offset="0.156" stop-color="#0198F6"/>
<stop offset="0.372" stop-color="#04A8E4"/>
<stop offset="0.621" stop-color="#07C3C7"/>
<stop offset="0.643" stop-color="#08C6C5"/>
<stop offset="0.885" stop-color="#06E5C4"/>
<stop offset="1" stop-color="#06F6C4"/>
</linearGradient>
<linearGradient id="paint9_linear_1_1020" x1="39.8837" y1="31.0213" x2="39.9044" y2="26.4613" gradientUnits="userSpaceOnUse">
<stop stop-color="#0193FD"/>
<stop offset="0.156" stop-color="#0198F6"/>
<stop offset="0.372" stop-color="#04A8E4"/>
<stop offset="0.621" stop-color="#07C3C7"/>
<stop offset="0.643" stop-color="#08C6C5"/>
<stop offset="0.885" stop-color="#06E5C4"/>
<stop offset="1" stop-color="#06F6C4"/>
</linearGradient>
<linearGradient id="paint10_linear_1_1020" x1="11.4654" y1="31.0213" x2="11.486" y2="26.4613" gradientUnits="userSpaceOnUse">
<stop stop-color="#0193FD"/>
<stop offset="0.156" stop-color="#0198F6"/>
<stop offset="0.372" stop-color="#04A8E4"/>
<stop offset="0.621" stop-color="#07C3C7"/>
<stop offset="0.643" stop-color="#08C6C5"/>
<stop offset="0.885" stop-color="#06E5C4"/>
<stop offset="1" stop-color="#06F6C4"/>
</linearGradient>
<linearGradient id="paint11_linear_1_1020" x1="15.482" y1="22.6469" x2="15.5552" y2="14.9624" gradientUnits="userSpaceOnUse">
<stop stop-color="#0193FD"/>
<stop offset="0.156" stop-color="#0198F6"/>
<stop offset="0.372" stop-color="#04A8E4"/>
<stop offset="0.621" stop-color="#07C3C7"/>
<stop offset="0.643" stop-color="#08C6C5"/>
<stop offset="0.885" stop-color="#06E5C4"/>
<stop offset="1" stop-color="#06F6C4"/>
</linearGradient>
</defs>
</svg>
